<svg width="209" height="56" viewBox="0 0 209 56" fill="none" xmlns="http://www.w3.org/2000/svg">
<path d="M32.4739 41.6477V1.01587H39.809V41.6477H32.4739Z" fill="#D01E53"/>
<path d="M42.9548 28.5169C42.9548 20.1777 49.5608 14.6495 57.0085 14.6495C64.4562 14.6495 71.0609 20.1777 71.0609 28.5127C71.0609 36.7966 64.4549 42.3192 57.0085 42.3192C49.5622 42.3192 42.9548 36.8008 42.9548 28.5169ZM63.6145 28.5169C63.6145 24.4025 60.6473 21.5279 57.0085 21.5279C53.3698 21.5279 50.4012 24.4025 50.4012 28.5169C50.4012 32.5745 53.3684 35.4478 57.0085 35.4478C60.6486 35.4478 63.6145 32.5745 63.6145 28.5169V28.5169Z" fill="#D01E53"/>
<path d="M132.765 33.9524H139.651C139.651 35.4726 140.939 37.109 143.515 37.109C145.642 37.109 147.265 36.0379 147.265 34.5163C147.265 33.3885 146.37 32.826 144.411 32.3188L140.939 31.473C134.221 29.6764 133.324 25.8938 133.324 23.1325C133.324 19.0748 137.523 15.2424 143.57 15.2424C148.329 15.2424 153.929 17.5532 153.869 23.811H146.866C146.866 22.0144 145.41 21.047 143.673 21.047C141.995 21.047 140.652 22.0061 140.652 23.3577C140.652 24.6016 141.772 25.218 143.227 25.6118L147.539 26.7396C153.811 28.4298 154.594 32.3741 154.594 34.5163C154.594 40.0444 148.994 42.9135 143.62 42.9135C138.134 42.9135 132.82 39.7569 132.765 33.9524Z" fill="#D01E53"/>
<path d="M29.0809 28.5169C29.0809 20.1777 22.4749 14.6495 15.0286 14.6495C7.58222 14.6495 0.974854 20.1777 0.974854 28.5169C0.974854 36.8008 7.58085 42.3234 15.0286 42.3234C17.3622 42.3265 19.6631 41.7714 21.7417 40.7036V45.7854C19.6635 44.7165 17.3623 44.1612 15.0286 44.1656C8.52005 44.1656 2.65828 48.3864 1.2838 55.0174H9.0281C9.53258 53.8367 10.3698 52.8308 11.4363 52.1239C12.5027 51.4171 13.7517 51.0404 15.0286 51.0404C16.3055 51.0404 17.5544 51.4171 18.6208 52.1239C19.6873 52.8308 20.5245 53.8367 21.029 55.0174H29.0768V28.6205C29.0768 28.5832 29.0809 28.55 29.0809 28.5169ZM15.0286 35.4478C11.3898 35.4478 8.42256 32.5745 8.42256 28.5169C8.42256 24.4025 11.3898 21.5279 15.0286 21.5279C18.6673 21.5279 21.6346 24.4025 21.6346 28.5169C21.6346 32.5745 18.6741 35.4478 15.0286 35.4478Z" fill="#D01E53"/>
<path d="M193.363 49.738L193.311 23.1518C193.3 16.7945 188.23 11.6533 181.988 11.663L182.04 38.2505C182.051 44.6051 187.12 49.7532 193.363 49.738Z" fill="#D01E53"/>
<path d="M196.354 49.738L196.405 23.1518C196.416 16.7945 201.485 11.6533 207.729 11.663L207.676 38.2505C207.659 44.6051 202.589 49.7532 196.354 49.738Z" fill="#D01E53"/>
<path d="M194.854 13.5122C198.283 13.5122 201.062 10.7148 201.062 7.26404C201.062 3.81327 198.283 1.01587 194.854 1.01587C191.426 1.01587 188.646 3.81327 188.646 7.26404C188.646 10.7148 191.426 13.5122 194.854 13.5122Z" fill="#D01E53"/>
<path d="M165.78 29.0821C165.781 32.6175 167.163 36.0109 169.626 38.5308C172.09 41.0507 175.439 42.4951 178.951 42.5528V15.6169C175.44 15.6746 172.092 17.1183 169.628 19.6369C167.165 22.1556 165.783 25.5476 165.78 29.0821V29.0821Z" fill="#D01E53"/>
<path d="M129.758 28.8541V15.8934H122.618V29.9777C122.618 34.0478 119.8 35.6081 117.376 35.644C114.951 35.604 112.045 33.6912 112.045 29.6211V15.5382H104.905V30.0205C104.905 31.7799 105.081 33.5433 105.598 35.2308C106.02 36.6642 106.725 37.9969 107.672 39.1489C109.077 40.8142 111.007 41.8577 113.119 42.2958C114.611 42.5868 116.131 42.7064 117.65 42.6523C118.587 42.635 119.519 42.5136 120.429 42.2902C121.253 42.0829 121.911 41.7181 122.626 41.2827V42.2322H129.766L129.758 28.8541Z" fill="#D01E53"/>
<path d="M87.9622 14.6496C85.6403 14.6463 83.3522 15.2101 81.2945 16.2929L81.245 16.3233V1.01587H73.9099C73.9099 1.01587 73.9099 28.5073 73.9099 28.5183C73.9099 36.8022 80.5173 42.3249 87.9636 42.3249C95.41 42.3249 102.021 36.8009 102.021 28.517C102.021 20.1778 95.4086 14.6496 87.9622 14.6496ZM87.9622 35.4437C84.3235 35.4437 81.3562 32.5705 81.3562 28.5128C81.3562 24.3985 84.3235 21.5239 87.9622 21.5239C91.601 21.5239 94.5682 24.3985 94.5682 28.5128C94.5682 32.5746 91.601 35.4479 87.9622 35.4479V35.4437Z" fill="#D01E53"/>
</svg>
